# xmcd CD database file
#
# Track frame offsets:
#	150
#	9170
#	30883
#	51411
#	79063
#	94637
#	117311
#	135323
#	144846
#
# Disc length: 2244 seconds
#
# Revision: 0
# Processed by: cddbd v1.5.2PL0 Copyright (c) Steve Scherf et al.
# Submitted via: CDex 1.70beta2
#
DISCID=5f08c209
DTITLE=Kenny Drew Trio - Season's Greeting
DYEAR=1900
DGENRE=Jazz
TTITLE0=Blue Christmas
TTITLE1=Jingle Bells
TTITLE2=White Christmas
TTITLE3=Quiet Cathedral
TTITLE4=The Christmas Song
TTITLE5=Silent Night
TTITLE6=Green Sleeves
TTITLE7=A Way In A Manger
TTITLE8=Quiet Chatedral (Solo)
EXTD=
EXTT0=
EXTT1=
EXTT2=
EXTT3=
EXTT4=
EXTT5=
EXTT6=
EXTT7=
EXTT8=
PLAYORDER=
